<mxfile host="app.diagrams.net" modified="2021-10-05T20:56:51.389Z" agent="5.0 (Macintosh; Intel Mac OS X 10_14_6) AppleWebKit/605.1.15 (KHTML, like Gecko) Version/14.1.2 Safari/605.1.15" etag="L_EEPKPLFsMvZhKayf5o" version="15.2.7" type="github" pages="2">
  <diagram id="C5RBs43oDa-KdzZeNtuy" name="Page-1">
    <mxGraphModel dx="976" dy="674" grid="1" gridSize="10" guides="1" tooltips="1" connect="1" arrows="1" fold="1" page="1" pageScale="1" pageWidth="827" pageHeight="1169" math="0" shadow="0">
      <root>
        <mxCell id="WIyWlLk6GJQsqaUBKTNV-0" />
        <mxCell id="WIyWlLk6GJQsqaUBKTNV-1" parent="WIyWlLk6GJQsqaUBKTNV-0" />
        <mxCell id="oMTugPBLT0qLyM0Y3AuX-1" value="car_showroom" style="verticalLabelPosition=middle;verticalAlign=middle;html=1;shape=mxgraph.basic.rect;fillColor2=none;strokeWidth=1;size=20;indent=5;labelPosition=center;align=center;" vertex="1" parent="WIyWlLk6GJQsqaUBKTNV-1">
          <mxGeometry x="860" width="190" height="60" as="geometry" />
        </mxCell>
        <mxCell id="oMTugPBLT0qLyM0Y3AuX-2" value="&lt;span style=&quot;font-size: medium&quot;&gt;&quot;id&quot; serial&lt;/span&gt;" style="verticalLabelPosition=middle;verticalAlign=middle;html=1;shape=mxgraph.basic.rect;fillColor2=none;strokeWidth=1;size=20;indent=5;labelPosition=center;align=center;" vertex="1" parent="WIyWlLk6GJQsqaUBKTNV-1">
          <mxGeometry x="860" y="60" width="190" height="20" as="geometry" />
        </mxCell>
        <mxCell id="oMTugPBLT0qLyM0Y3AuX-4" value="&lt;span style=&quot;font-size: medium&quot;&gt;countryField&lt;/span&gt;" style="verticalLabelPosition=middle;verticalAlign=middle;html=1;shape=mxgraph.basic.rect;fillColor2=none;strokeWidth=1;size=20;indent=5;labelPosition=center;align=center;" vertex="1" parent="WIyWlLk6GJQsqaUBKTNV-1">
          <mxGeometry x="160" y="230" width="190" height="20" as="geometry" />
        </mxCell>
        <mxCell id="oMTugPBLT0qLyM0Y3AuX-7" value="user" style="verticalLabelPosition=middle;verticalAlign=middle;html=1;shape=mxgraph.basic.rect;fillColor2=none;strokeWidth=1;size=20;indent=5;labelPosition=center;align=center;" vertex="1" parent="WIyWlLk6GJQsqaUBKTNV-1">
          <mxGeometry x="470" y="160" width="190" height="50" as="geometry" />
        </mxCell>
        <mxCell id="oMTugPBLT0qLyM0Y3AuX-48" style="edgeStyle=orthogonalEdgeStyle;rounded=0;orthogonalLoop=1;jettySize=auto;html=1;entryX=1.005;entryY=0.65;entryDx=0;entryDy=0;entryPerimeter=0;" edge="1" parent="WIyWlLk6GJQsqaUBKTNV-1" source="oMTugPBLT0qLyM0Y3AuX-8" target="oMTugPBLT0qLyM0Y3AuX-47">
          <mxGeometry relative="1" as="geometry" />
        </mxCell>
        <mxCell id="oMTugPBLT0qLyM0Y3AuX-8" value="&lt;span style=&quot;font-size: medium&quot;&gt;&quot;id&quot; serial&lt;/span&gt;" style="verticalLabelPosition=middle;verticalAlign=middle;html=1;shape=mxgraph.basic.rect;fillColor2=none;strokeWidth=1;size=20;indent=5;labelPosition=center;align=center;" vertex="1" parent="WIyWlLk6GJQsqaUBKTNV-1">
          <mxGeometry x="470" y="210" width="190" height="20" as="geometry" />
        </mxCell>
        <mxCell id="oMTugPBLT0qLyM0Y3AuX-9" value="&lt;font size=&quot;3&quot;&gt;&quot;username&quot; char(150)&lt;/font&gt;" style="verticalLabelPosition=middle;verticalAlign=middle;html=1;shape=mxgraph.basic.rect;fillColor2=none;strokeWidth=1;size=20;indent=5;labelPosition=center;align=center;" vertex="1" parent="WIyWlLk6GJQsqaUBKTNV-1">
          <mxGeometry x="470" y="230" width="190" height="20" as="geometry" />
        </mxCell>
        <mxCell id="oMTugPBLT0qLyM0Y3AuX-11" value="&lt;font size=&quot;3&quot;&gt;password char(150)&lt;/font&gt;&lt;span style=&quot;color: rgba(0 , 0 , 0 , 0) ; font-family: monospace ; font-size: 0px&quot;&gt;%3CmxGraphModel%3E%3Croot%3E%3CmxCell%20id%3D%220%22%2F%3E%3CmxCell%20id%3D%221%22%20parent%3D%220%22%2F%3E%3CmxCell%20id%3D%222%22%20value%3D%22%26lt%3Bfont%20size%3D%26quot%3B3%26quot%3B%26gt%3B%26quot%3Busername%26quot%3B%20char(150)%26lt%3B%2Ffont%26gt%3B%22%20style%3D%22verticalLabelPosition%3Dmiddle%3BverticalAlign%3Dmiddle%3Bhtml%3D1%3Bshape%3Dmxgraph.basic.rect%3BfillColor2%3Dnone%3BstrokeWidth%3D1%3Bsize%3D20%3Bindent%3D5%3BlabelPosition%3Dcenter%3Balign%3Dcenter%3B%22%20vertex%3D%221%22%20parent%3D%221%22%3E%3CmxGeometry%20x%3D%22730%22%20y%3D%22170%22%20width%3D%22190%22%20height%3D%2220%22%20as%3D%22geometry%22%2F%3E%3C%2FmxCell%3E%3C%2Froot%3E%3C%2FmxGraphModel%3E&lt;/span&gt;" style="verticalLabelPosition=middle;verticalAlign=middle;html=1;shape=mxgraph.basic.rect;fillColor2=none;strokeWidth=1;size=5;indent=5;labelPosition=center;align=center;" vertex="1" parent="WIyWlLk6GJQsqaUBKTNV-1">
          <mxGeometry x="470" y="250" width="190" height="20" as="geometry" />
        </mxCell>
        <mxCell id="oMTugPBLT0qLyM0Y3AuX-12" value="&lt;font size=&quot;3&quot;&gt;&quot;date join&quot; DATE&lt;/font&gt;" style="verticalLabelPosition=middle;verticalAlign=middle;html=1;shape=mxgraph.basic.rect;fillColor2=none;strokeWidth=1;size=20;indent=5;labelPosition=center;align=center;" vertex="1" parent="WIyWlLk6GJQsqaUBKTNV-1">
          <mxGeometry x="470" y="270" width="190" height="20" as="geometry" />
        </mxCell>
        <mxCell id="oMTugPBLT0qLyM0Y3AuX-14" value="&lt;font size=&quot;3&quot;&gt;&quot;is car showroom&quot; bool&lt;/font&gt;" style="verticalLabelPosition=middle;verticalAlign=middle;html=1;shape=mxgraph.basic.rect;fillColor2=none;strokeWidth=1;size=20;indent=5;labelPosition=center;align=center;" vertex="1" parent="WIyWlLk6GJQsqaUBKTNV-1">
          <mxGeometry x="470" y="290" width="190" height="20" as="geometry" />
        </mxCell>
        <mxCell id="oMTugPBLT0qLyM0Y3AuX-15" value="&lt;font size=&quot;3&quot;&gt;&quot;is provider&quot; bool&lt;/font&gt;" style="verticalLabelPosition=middle;verticalAlign=middle;html=1;shape=mxgraph.basic.rect;fillColor2=none;strokeWidth=1;size=20;indent=5;labelPosition=center;align=center;" vertex="1" parent="WIyWlLk6GJQsqaUBKTNV-1">
          <mxGeometry x="470" y="310" width="190" height="20" as="geometry" />
        </mxCell>
        <mxCell id="oMTugPBLT0qLyM0Y3AuX-16" value="&lt;font size=&quot;3&quot;&gt;&quot;phone&quot; char(14)&lt;/font&gt;" style="verticalLabelPosition=middle;verticalAlign=middle;html=1;shape=mxgraph.basic.rect;fillColor2=none;strokeWidth=1;size=20;indent=5;labelPosition=center;align=center;" vertex="1" parent="WIyWlLk6GJQsqaUBKTNV-1">
          <mxGeometry x="470" y="350" width="190" height="20" as="geometry" />
        </mxCell>
        <mxCell id="oMTugPBLT0qLyM0Y3AuX-17" value="car" style="verticalLabelPosition=middle;verticalAlign=middle;html=1;shape=mxgraph.basic.rect;fillColor2=none;strokeWidth=1;size=20;indent=5;labelPosition=center;align=center;" vertex="1" parent="WIyWlLk6GJQsqaUBKTNV-1">
          <mxGeometry x="1760" y="250" width="246" height="60" as="geometry" />
        </mxCell>
        <mxCell id="oMTugPBLT0qLyM0Y3AuX-18" value="&lt;span style=&quot;font-size: medium&quot;&gt;&quot;id&quot; serial&lt;/span&gt;" style="verticalLabelPosition=middle;verticalAlign=middle;html=1;shape=mxgraph.basic.rect;fillColor2=none;strokeWidth=1;size=20;indent=5;labelPosition=center;align=center;" vertex="1" parent="WIyWlLk6GJQsqaUBKTNV-1">
          <mxGeometry x="1760" y="310" width="246" height="20" as="geometry" />
        </mxCell>
        <mxCell id="oMTugPBLT0qLyM0Y3AuX-19" value="&lt;font size=&quot;3&quot;&gt;&quot;name&quot; char(150)&lt;/font&gt;&lt;span style=&quot;color: rgba(0 , 0 , 0 , 0) ; font-family: monospace ; font-size: 0px&quot;&gt;%3CmxGraphModel%3E%3Croot%3E%3CmxCell%20id%3D%220%22%2F%3E%3CmxCell%20id%3D%221%22%20parent%3D%220%22%2F%3E%3CmxCell%20id%3D%222%22%20value%3D%22%26lt%3Bspan%20style%3D%26quot%3Bfont-size%3A%20medium%26quot%3B%26gt%3B%26quot%3Bid%26quot%3B%20serial%26lt%3B%2Fspan%26gt%3B%22%20style%3D%22verticalLabelPosition%3Dmiddle%3BverticalAlign%3Dmiddle%3Bhtml%3D1%3Bshape%3Dmxgraph.basic.rect%3BfillColor2%3Dnone%3BstrokeWidth%3D1%3Bsize%3D20%3Bindent%3D5%3BlabelPosition%3Dcenter%3Balign%3Dcenter%3B%22%20vertex%3D%221%22%20parent%3D%221%22%3E%3CmxGeometry%20x%3D%22354%22%20y%3D%22170%22%20width%3D%22186%22%20height%3D%2220%22%20as%3D%22geometry%22%2F%3E%3C%2FmxCell%3E%3C%2Froot%3E%3C%2FmxGraphModel%3E&lt;/span&gt;" style="verticalLabelPosition=middle;verticalAlign=middle;html=1;shape=mxgraph.basic.rect;fillColor2=none;strokeWidth=1;size=20;indent=5;labelPosition=center;align=center;" vertex="1" parent="WIyWlLk6GJQsqaUBKTNV-1">
          <mxGeometry x="1760" y="330" width="246" height="20" as="geometry" />
        </mxCell>
        <mxCell id="oMTugPBLT0qLyM0Y3AuX-20" value="&lt;font size=&quot;3&quot;&gt;&quot;color&quot; char(150)&lt;/font&gt;&lt;span style=&quot;color: rgba(0 , 0 , 0 , 0) ; font-family: monospace ; font-size: 0px&quot;&gt;%3CmxGraphModel%3E%3Croot%3E%3CmxCell%20id%3D%220%22%2F%3E%3CmxCell%20id%3D%221%22%20parent%3D%220%22%2F%3E%3CmxCell%20id%3D%222%22%20value%3D%22%26lt%3Bspan%20style%3D%26quot%3Bfont-size%3A%20medium%26quot%3B%26gt%3B%26quot%3Bid%26quot%3B%20serial%26lt%3B%2Fspan%26gt%3B%22%20style%3D%22verticalLabelPosition%3Dmiddle%3BverticalAlign%3Dmiddle%3Bhtml%3D1%3Bshape%3Dmxgraph.basic.rect%3BfillColor2%3Dnone%3BstrokeWidth%3D1%3Bsize%3D20%3Bindent%3D5%3BlabelPosition%3Dcenter%3Balign%3Dcenter%3B%22%20vertex%3D%221%22%20parent%3D%221%22%3E%3CmxGeometry%20x%3D%22354%22%20y%3D%22170%22%20width%3D%22186%22%20height%3D%2220%22%20as%3D%22geometry%22%2F%3E%3C%2FmxCell%3E%3C%2Froot%3E%3C%2FmxGraphModel%3E&lt;/span&gt;" style="verticalLabelPosition=middle;verticalAlign=middle;html=1;shape=mxgraph.basic.rect;fillColor2=none;strokeWidth=1;size=20;indent=5;labelPosition=center;align=center;" vertex="1" parent="WIyWlLk6GJQsqaUBKTNV-1">
          <mxGeometry x="1760" y="350" width="246" height="20" as="geometry" />
        </mxCell>
        <mxCell id="oMTugPBLT0qLyM0Y3AuX-23" value="provider" style="verticalLabelPosition=middle;verticalAlign=middle;html=1;shape=mxgraph.basic.rect;fillColor2=none;strokeWidth=1;size=20;indent=5;labelPosition=center;align=center;" vertex="1" parent="WIyWlLk6GJQsqaUBKTNV-1">
          <mxGeometry x="860" y="250" width="190" height="50" as="geometry" />
        </mxCell>
        <mxCell id="oMTugPBLT0qLyM0Y3AuX-24" value="&lt;span style=&quot;font-size: medium&quot;&gt;&quot;id&quot; serial&lt;/span&gt;" style="verticalLabelPosition=middle;verticalAlign=middle;html=1;shape=mxgraph.basic.rect;fillColor2=none;strokeWidth=1;size=20;indent=5;labelPosition=center;align=center;" vertex="1" parent="WIyWlLk6GJQsqaUBKTNV-1">
          <mxGeometry x="860" y="300" width="190" height="20" as="geometry" />
        </mxCell>
        <mxCell id="oMTugPBLT0qLyM0Y3AuX-49" style="edgeStyle=orthogonalEdgeStyle;rounded=0;orthogonalLoop=1;jettySize=auto;html=1;entryX=0.995;entryY=0.55;entryDx=0;entryDy=0;entryPerimeter=0;" edge="1" parent="WIyWlLk6GJQsqaUBKTNV-1" source="oMTugPBLT0qLyM0Y3AuX-25" target="oMTugPBLT0qLyM0Y3AuX-8">
          <mxGeometry relative="1" as="geometry" />
        </mxCell>
        <mxCell id="oMTugPBLT0qLyM0Y3AuX-25" value="&lt;span style=&quot;font-size: medium&quot;&gt;&quot;user&quot; int FK - &quot;user&quot;.&quot;id&quot;&amp;nbsp;&lt;/span&gt;" style="verticalLabelPosition=middle;verticalAlign=middle;html=1;shape=mxgraph.basic.rect;fillColor2=none;strokeWidth=1;size=20;indent=5;labelPosition=center;align=center;" vertex="1" parent="WIyWlLk6GJQsqaUBKTNV-1">
          <mxGeometry x="860" y="320" width="190" height="20" as="geometry" />
        </mxCell>
        <mxCell id="oMTugPBLT0qLyM0Y3AuX-28" value="&lt;font size=&quot;3&quot;&gt;&quot;amount cars&quot; int&lt;/font&gt;&lt;span style=&quot;color: rgba(0 , 0 , 0 , 0) ; font-family: monospace ; font-size: 0px&quot;&gt;%3CmxGraphModel%3E%3Croot%3E%3CmxCell%20id%3D%220%22%2F%3E%3CmxCell%20id%3D%221%22%20parent%3D%220%22%2F%3E%3CmxCell%20id%3D%222%22%20value%3D%22%26lt%3Bspan%20style%3D%26quot%3Bfont-size%3A%20medium%26quot%3B%26gt%3B%26quot%3Bid%26quot%3B%20serial%26lt%3B%2Fspan%26gt%3B%22%20style%3D%22verticalLabelPosition%3Dmiddle%3BverticalAlign%3Dmiddle%3Bhtml%3D1%3Bshape%3Dmxgraph.basic.rect%3BfillColor2%3Dnone%3BstrokeWidth%3D1%3Bsize%3D20%3Bindent%3D5%3BlabelPosition%3Dcenter%3Balign%3Dcenter%3B%22%20vertex%3D%221%22%20parent%3D%221%22%3E%3CmxGeometry%20x%3D%22354%22%20y%3D%22170%22%20width%3D%22186%22%20height%3D%2220%22%20as%3D%22geometry%22%2F%3E%3C%2FmxCell%3E%3C%2Froot%3E%3C%2FmxGraphModel%3E&lt;/span&gt;" style="verticalLabelPosition=middle;verticalAlign=middle;html=1;shape=mxgraph.basic.rect;fillColor2=none;strokeWidth=1;size=20;indent=5;labelPosition=center;align=center;" vertex="1" parent="WIyWlLk6GJQsqaUBKTNV-1">
          <mxGeometry x="860" y="340" width="190" height="20" as="geometry" />
        </mxCell>
        <mxCell id="oMTugPBLT0qLyM0Y3AuX-29" value="&lt;font size=&quot;3&quot;&gt;&quot;price&quot; int&lt;/font&gt;&lt;span style=&quot;color: rgba(0 , 0 , 0 , 0) ; font-family: monospace ; font-size: 0px&quot;&gt;%3CmxGraphModel%3E%3Croot%3E%3CmxCell%20id%3D%220%22%2F%3E%3CmxCell%20id%3D%221%22%20parent%3D%220%22%2F%3E%3CmxCell%20id%3D%222%22%20value%3D%22%26lt%3Bspan%20style%3D%26quot%3Bfont-size%3A%20medium%26quot%3B%26gt%3B%26quot%3Bid%26quot%3B%20serial%26lt%3B%2Fspan%26gt%3B%22%20style%3D%22verticalLabelPosition%3Dmiddle%3BverticalAlign%3Dmiddle%3Bhtml%3D1%3Bshape%3Dmxgraph.basic.rect%3BfillColor2%3Dnone%3BstrokeWidth%3D1%3Bsize%3D20%3Bindent%3D5%3BlabelPosition%3Dcenter%3Balign%3Dcenter%3B%22%20vertex%3D%221%22%20parent%3D%221%22%3E%3CmxGeometry%20x%3D%22354%22%20y%3D%22170%22%20width%3D%22186%22%20height%3D%2220%22%20as%3D%22geometry%22%2F%3E%3C%2FmxCell%3E%3C%2Froot%3E%3C%2FmxGraphModel%3E&lt;/span&gt;" style="verticalLabelPosition=middle;verticalAlign=middle;html=1;shape=mxgraph.basic.rect;fillColor2=none;strokeWidth=1;size=20;indent=5;labelPosition=center;align=center;" vertex="1" parent="WIyWlLk6GJQsqaUBKTNV-1">
          <mxGeometry x="1760" y="370" width="246" height="20" as="geometry" />
        </mxCell>
        <mxCell id="oMTugPBLT0qLyM0Y3AuX-31" value="&lt;span style=&quot;font-size: medium&quot;&gt;&quot;provider&quot; int FK &amp;gt;-&amp;lt; &quot;provider&quot;.&quot;id&quot;&amp;nbsp;&lt;/span&gt;" style="verticalLabelPosition=middle;verticalAlign=middle;html=1;shape=mxgraph.basic.rect;fillColor2=none;strokeWidth=1;size=20;indent=5;labelPosition=center;align=center;" vertex="1" parent="WIyWlLk6GJQsqaUBKTNV-1">
          <mxGeometry x="1760" y="390" width="246" height="20" as="geometry" />
        </mxCell>
        <mxCell id="oMTugPBLT0qLyM0Y3AuX-33" value="&lt;font size=&quot;3&quot;&gt;balance decimal&lt;/font&gt;" style="verticalLabelPosition=middle;verticalAlign=middle;html=1;shape=mxgraph.basic.rect;fillColor2=none;strokeWidth=1;size=20;indent=5;labelPosition=center;align=center;" vertex="1" parent="WIyWlLk6GJQsqaUBKTNV-1">
          <mxGeometry x="470" y="390" width="190" height="20" as="geometry" />
        </mxCell>
        <mxCell id="oMTugPBLT0qLyM0Y3AuX-34" value="&lt;font size=&quot;3&quot;&gt;&quot;is customer&quot; bool&lt;/font&gt;" style="verticalLabelPosition=middle;verticalAlign=middle;html=1;shape=mxgraph.basic.rect;fillColor2=none;strokeWidth=1;size=20;indent=5;labelPosition=center;align=center;" vertex="1" parent="WIyWlLk6GJQsqaUBKTNV-1">
          <mxGeometry x="470" y="330" width="190" height="20" as="geometry" />
        </mxCell>
        <mxCell id="oMTugPBLT0qLyM0Y3AuX-35" value="&lt;span style=&quot;font-size: medium&quot;&gt;&quot;provider&quot; int FK &amp;gt;- &quot;provider&quot;.&quot;id&quot;&amp;nbsp;&lt;/span&gt;" style="verticalLabelPosition=middle;verticalAlign=middle;html=1;shape=mxgraph.basic.rect;fillColor2=none;strokeWidth=1;size=20;indent=5;labelPosition=center;align=center;" vertex="1" parent="WIyWlLk6GJQsqaUBKTNV-1">
          <mxGeometry x="1760" y="410" width="246" height="20" as="geometry" />
        </mxCell>
        <mxCell id="oMTugPBLT0qLyM0Y3AuX-38" value="customer" style="verticalLabelPosition=middle;verticalAlign=middle;html=1;shape=mxgraph.basic.rect;fillColor2=none;strokeWidth=1;size=20;indent=5;labelPosition=center;align=center;" vertex="1" parent="WIyWlLk6GJQsqaUBKTNV-1">
          <mxGeometry x="862" y="460" width="198" height="60" as="geometry" />
        </mxCell>
        <mxCell id="oMTugPBLT0qLyM0Y3AuX-39" value="&lt;span style=&quot;font-size: medium&quot;&gt;&quot;id&quot; serial&lt;/span&gt;" style="verticalLabelPosition=middle;verticalAlign=middle;html=1;shape=mxgraph.basic.rect;fillColor2=none;strokeWidth=1;size=20;indent=5;labelPosition=center;align=center;" vertex="1" parent="WIyWlLk6GJQsqaUBKTNV-1">
          <mxGeometry x="862" y="520" width="198" height="20" as="geometry" />
        </mxCell>
        <mxCell id="oMTugPBLT0qLyM0Y3AuX-42" value="&lt;font size=&quot;3&quot;&gt;is_deleted boolean&lt;/font&gt;" style="verticalLabelPosition=middle;verticalAlign=middle;html=1;shape=mxgraph.basic.rect;fillColor2=none;strokeWidth=1;size=20;indent=5;labelPosition=center;align=center;" vertex="1" parent="WIyWlLk6GJQsqaUBKTNV-1">
          <mxGeometry x="470" y="370" width="190" height="20" as="geometry" />
        </mxCell>
        <mxCell id="oMTugPBLT0qLyM0Y3AuX-43" value="location" style="verticalLabelPosition=middle;verticalAlign=middle;html=1;shape=mxgraph.basic.rect;fillColor2=none;strokeWidth=1;size=20;indent=5;labelPosition=center;align=center;" vertex="1" parent="WIyWlLk6GJQsqaUBKTNV-1">
          <mxGeometry x="160" y="160" width="190" height="50" as="geometry" />
        </mxCell>
        <mxCell id="oMTugPBLT0qLyM0Y3AuX-44" value="&lt;span style=&quot;font-size: medium&quot;&gt;&quot;id&quot; serial&lt;/span&gt;" style="verticalLabelPosition=middle;verticalAlign=middle;html=1;shape=mxgraph.basic.rect;fillColor2=none;strokeWidth=1;size=20;indent=5;labelPosition=center;align=center;" vertex="1" parent="WIyWlLk6GJQsqaUBKTNV-1">
          <mxGeometry x="160" y="210" width="190" height="20" as="geometry" />
        </mxCell>
        <mxCell id="oMTugPBLT0qLyM0Y3AuX-47" value="&lt;span style=&quot;font-size: medium&quot;&gt;&quot;user&quot; int FK -&amp;lt; &quot;user&quot;.&quot;id&quot;&amp;nbsp;&lt;/span&gt;" style="verticalLabelPosition=middle;verticalAlign=middle;html=1;shape=mxgraph.basic.rect;fillColor2=none;strokeWidth=1;size=20;indent=5;labelPosition=center;align=center;" vertex="1" parent="WIyWlLk6GJQsqaUBKTNV-1">
          <mxGeometry x="160" y="250" width="190" height="20" as="geometry" />
        </mxCell>
        <mxCell id="oMTugPBLT0qLyM0Y3AuX-51" style="edgeStyle=orthogonalEdgeStyle;rounded=0;orthogonalLoop=1;jettySize=auto;html=1;entryX=1.005;entryY=0.55;entryDx=0;entryDy=0;entryPerimeter=0;" edge="1" parent="WIyWlLk6GJQsqaUBKTNV-1" source="oMTugPBLT0qLyM0Y3AuX-50" target="oMTugPBLT0qLyM0Y3AuX-8">
          <mxGeometry relative="1" as="geometry" />
        </mxCell>
        <mxCell id="oMTugPBLT0qLyM0Y3AuX-50" value="&lt;span style=&quot;font-size: medium&quot;&gt;&quot;user&quot; int FK - &quot;user&quot;.&quot;id&quot;&amp;nbsp;&lt;/span&gt;" style="verticalLabelPosition=middle;verticalAlign=middle;html=1;shape=mxgraph.basic.rect;fillColor2=none;strokeWidth=1;size=20;indent=5;labelPosition=center;align=center;" vertex="1" parent="WIyWlLk6GJQsqaUBKTNV-1">
          <mxGeometry x="860" y="80" width="190" height="20" as="geometry" />
        </mxCell>
        <mxCell id="oMTugPBLT0qLyM0Y3AuX-54" style="edgeStyle=orthogonalEdgeStyle;rounded=0;orthogonalLoop=1;jettySize=auto;html=1;entryX=1.005;entryY=0.55;entryDx=0;entryDy=0;entryPerimeter=0;" edge="1" parent="WIyWlLk6GJQsqaUBKTNV-1" source="oMTugPBLT0qLyM0Y3AuX-52" target="oMTugPBLT0qLyM0Y3AuX-8">
          <mxGeometry relative="1" as="geometry" />
        </mxCell>
        <mxCell id="oMTugPBLT0qLyM0Y3AuX-52" value="&lt;span style=&quot;font-size: medium&quot;&gt;&quot;user&quot; int FK - &quot;user&quot;.&quot;id&quot;&amp;nbsp;&lt;/span&gt;" style="verticalLabelPosition=middle;verticalAlign=middle;html=1;shape=mxgraph.basic.rect;fillColor2=none;strokeWidth=1;size=20;indent=5;labelPosition=center;align=center;" vertex="1" parent="WIyWlLk6GJQsqaUBKTNV-1">
          <mxGeometry x="862" y="540" width="198" height="20" as="geometry" />
        </mxCell>
        <mxCell id="oMTugPBLT0qLyM0Y3AuX-59" value="description" style="verticalLabelPosition=middle;verticalAlign=middle;html=1;shape=mxgraph.basic.rect;fillColor2=none;strokeWidth=1;size=20;indent=5;labelPosition=center;align=center;" vertex="1" parent="WIyWlLk6GJQsqaUBKTNV-1">
          <mxGeometry x="1320" y="110" width="270" height="50" as="geometry" />
        </mxCell>
        <mxCell id="oMTugPBLT0qLyM0Y3AuX-60" value="&lt;span style=&quot;font-size: medium&quot;&gt;&quot;id&quot; serial&lt;/span&gt;" style="verticalLabelPosition=middle;verticalAlign=middle;html=1;shape=mxgraph.basic.rect;fillColor2=none;strokeWidth=1;size=20;indent=5;labelPosition=center;align=center;" vertex="1" parent="WIyWlLk6GJQsqaUBKTNV-1">
          <mxGeometry x="1320" y="160" width="270" height="20" as="geometry" />
        </mxCell>
        <mxCell id="oMTugPBLT0qLyM0Y3AuX-61" value="&lt;font size=&quot;3&quot;&gt;&quot;name&quot; char(150)&lt;/font&gt;&lt;span style=&quot;color: rgba(0 , 0 , 0 , 0) ; font-family: monospace ; font-size: 0px&quot;&gt;%3CmxGraphModel%3E%3Croot%3E%3CmxCell%20id%3D%220%22%2F%3E%3CmxCell%20id%3D%221%22%20parent%3D%220%22%2F%3E%3CmxCell%20id%3D%222%22%20value%3D%22%26lt%3Bspan%20style%3D%26quot%3Bfont-size%3A%20medium%26quot%3B%26gt%3B%26quot%3Bid%26quot%3B%20serial%26lt%3B%2Fspan%26gt%3B%22%20style%3D%22verticalLabelPosition%3Dmiddle%3BverticalAlign%3Dmiddle%3Bhtml%3D1%3Bshape%3Dmxgraph.basic.rect%3BfillColor2%3Dnone%3BstrokeWidth%3D1%3Bsize%3D20%3Bindent%3D5%3BlabelPosition%3Dcenter%3Balign%3Dcenter%3B%22%20vertex%3D%221%22%20parent%3D%221%22%3E%3CmxGeometry%20x%3D%22354%22%20y%3D%22170%22%20width%3D%22186%22%20height%3D%2220%22%20as%3D%22geometry%22%2F%3E%3C%2FmxCell%3E%3C%2Froot%3E%3C%2FmxGraphModel%3E&lt;/span&gt;" style="verticalLabelPosition=middle;verticalAlign=middle;html=1;shape=mxgraph.basic.rect;fillColor2=none;strokeWidth=1;size=20;indent=5;labelPosition=center;align=center;" vertex="1" parent="WIyWlLk6GJQsqaUBKTNV-1">
          <mxGeometry x="1320" y="180" width="270" height="20" as="geometry" />
        </mxCell>
        <mxCell id="oMTugPBLT0qLyM0Y3AuX-62" value="&lt;font size=&quot;3&quot;&gt;&quot;description&quot; char(300)&lt;/font&gt;&lt;span style=&quot;color: rgba(0 , 0 , 0 , 0) ; font-family: monospace ; font-size: 0px&quot;&gt;%3CmxGraphModel%3E%3Croot%3E%3CmxCell%20id%3D%220%22%2F%3E%3CmxCell%20id%3D%221%22%20parent%3D%220%22%2F%3E%3CmxCell%20id%3D%222%22%20value%3D%22%26lt%3Bspan%20style%3D%26quot%3Bfont-size%3A%20medium%26quot%3B%26gt%3B%26quot%3Bid%26quot%3B%20serial%26lt%3B%2Fspan%26gt%3B%22%20style%3D%22verticalLabelPosition%3Dmiddle%3BverticalAlign%3Dmiddle%3Bhtml%3D1%3Bshape%3Dmxgraph.basic.rect%3BfillColor2%3Dnone%3BstrokeWidth%3D1%3Bsize%3D20%3Bindent%3D5%3BlabelPosition%3Dcenter%3Balign%3Dcenter%3B%22%20vertex%3D%221%22%20parent%3D%221%22%3E%3CmxGeometry%20x%3D%22354%22%20y%3D%22170%22%20width%3D%22186%22%20height%3D%2220%22%20as%3D%22geometry%22%2F%3E%3C%2FmxCell%3E%3C%2Froot%3E%3C%2FmxGraphModel%3E&lt;/span&gt;" style="verticalLabelPosition=middle;verticalAlign=middle;html=1;shape=mxgraph.basic.rect;fillColor2=none;strokeWidth=1;size=20;indent=5;labelPosition=center;align=center;" vertex="1" parent="WIyWlLk6GJQsqaUBKTNV-1">
          <mxGeometry x="1320" y="200" width="270" height="20" as="geometry" />
        </mxCell>
        <mxCell id="oMTugPBLT0qLyM0Y3AuX-68" style="edgeStyle=orthogonalEdgeStyle;rounded=0;orthogonalLoop=1;jettySize=auto;html=1;entryX=1.005;entryY=0.65;entryDx=0;entryDy=0;entryPerimeter=0;" edge="1" parent="WIyWlLk6GJQsqaUBKTNV-1" source="oMTugPBLT0qLyM0Y3AuX-63" target="oMTugPBLT0qLyM0Y3AuX-24">
          <mxGeometry relative="1" as="geometry" />
        </mxCell>
        <mxCell id="oMTugPBLT0qLyM0Y3AuX-63" value="&lt;span style=&quot;font-size: medium&quot;&gt;&quot;provider&quot; int FK &amp;gt;- &quot;user&quot;.&quot;id&quot;&amp;nbsp;&lt;/span&gt;" style="verticalLabelPosition=middle;verticalAlign=middle;html=1;shape=mxgraph.basic.rect;fillColor2=none;strokeWidth=1;size=8;indent=5;labelPosition=center;align=center;" vertex="1" parent="WIyWlLk6GJQsqaUBKTNV-1">
          <mxGeometry x="1320" y="240" width="270" height="20" as="geometry" />
        </mxCell>
        <mxCell id="oMTugPBLT0qLyM0Y3AuX-67" style="edgeStyle=orthogonalEdgeStyle;rounded=0;orthogonalLoop=1;jettySize=auto;html=1;entryX=1;entryY=0.4;entryDx=0;entryDy=0;entryPerimeter=0;" edge="1" parent="WIyWlLk6GJQsqaUBKTNV-1" source="oMTugPBLT0qLyM0Y3AuX-64" target="oMTugPBLT0qLyM0Y3AuX-2">
          <mxGeometry relative="1" as="geometry" />
        </mxCell>
        <mxCell id="oMTugPBLT0qLyM0Y3AuX-64" value="&lt;span style=&quot;font-size: medium&quot;&gt;&quot;car_showroom&quot; int FK &amp;gt;- &quot;&lt;/span&gt;&lt;span style=&quot;font-size: medium&quot;&gt;car_showroom&lt;/span&gt;&lt;span style=&quot;font-size: medium&quot;&gt;&quot;.&quot;id&quot;&amp;nbsp;&lt;/span&gt;" style="verticalLabelPosition=middle;verticalAlign=middle;html=1;shape=mxgraph.basic.rect;fillColor2=none;strokeWidth=1;size=20;indent=5;labelPosition=center;align=center;" vertex="1" parent="WIyWlLk6GJQsqaUBKTNV-1">
          <mxGeometry x="1320" y="220" width="340" height="20" as="geometry" />
        </mxCell>
        <mxCell id="oMTugPBLT0qLyM0Y3AuX-69" value="stock" style="verticalLabelPosition=middle;verticalAlign=middle;html=1;shape=mxgraph.basic.rect;fillColor2=none;strokeWidth=1;size=20;indent=5;labelPosition=center;align=center;" vertex="1" parent="WIyWlLk6GJQsqaUBKTNV-1">
          <mxGeometry x="1320" y="380" width="310" height="50" as="geometry" />
        </mxCell>
        <mxCell id="oMTugPBLT0qLyM0Y3AuX-70" value="&lt;span style=&quot;font-size: medium&quot;&gt;&quot;id&quot; serial&lt;/span&gt;" style="verticalLabelPosition=middle;verticalAlign=middle;html=1;shape=mxgraph.basic.rect;fillColor2=none;strokeWidth=1;size=20;indent=5;labelPosition=center;align=center;" vertex="1" parent="WIyWlLk6GJQsqaUBKTNV-1">
          <mxGeometry x="1320" y="430" width="310" height="20" as="geometry" />
        </mxCell>
        <mxCell id="oMTugPBLT0qLyM0Y3AuX-77" style="edgeStyle=orthogonalEdgeStyle;rounded=0;orthogonalLoop=1;jettySize=auto;html=1;entryX=0;entryY=0.5;entryDx=0;entryDy=0;entryPerimeter=0;" edge="1" parent="WIyWlLk6GJQsqaUBKTNV-1" source="oMTugPBLT0qLyM0Y3AuX-72" target="oMTugPBLT0qLyM0Y3AuX-60">
          <mxGeometry relative="1" as="geometry">
            <Array as="points">
              <mxPoint x="1300" y="460" />
              <mxPoint x="1300" y="170" />
            </Array>
          </mxGeometry>
        </mxCell>
        <mxCell id="oMTugPBLT0qLyM0Y3AuX-72" value="&lt;font size=&quot;3&quot;&gt;&quot;description&quot; int FK &amp;gt;- &quot;description&quot;.&quot;id&quot;&lt;/font&gt;" style="verticalLabelPosition=middle;verticalAlign=middle;html=1;shape=mxgraph.basic.rect;fillColor2=none;strokeWidth=1;size=20;indent=5;labelPosition=center;align=center;" vertex="1" parent="WIyWlLk6GJQsqaUBKTNV-1">
          <mxGeometry x="1320" y="450" width="310" height="20" as="geometry" />
        </mxCell>
        <mxCell id="oMTugPBLT0qLyM0Y3AuX-73" value="&lt;span style=&quot;font-size: medium&quot;&gt;&quot;provider&quot; int FK &amp;gt;- &quot;user&quot;.&quot;id&quot;&amp;nbsp;&lt;/span&gt;" style="verticalLabelPosition=middle;verticalAlign=middle;html=1;shape=mxgraph.basic.rect;fillColor2=none;strokeWidth=1;size=8;indent=5;labelPosition=center;align=center;" vertex="1" parent="WIyWlLk6GJQsqaUBKTNV-1">
          <mxGeometry x="1320" y="490" width="310" height="20" as="geometry" />
        </mxCell>
        <mxCell id="oMTugPBLT0qLyM0Y3AuX-74" value="&lt;span style=&quot;font-size: medium&quot;&gt;&quot;car_showroom&quot; int FK &amp;gt;- &quot;user&quot;.&quot;id&quot;&amp;nbsp;&lt;/span&gt;" style="verticalLabelPosition=middle;verticalAlign=middle;html=1;shape=mxgraph.basic.rect;fillColor2=none;strokeWidth=1;size=20;indent=5;labelPosition=center;align=center;" vertex="1" parent="WIyWlLk6GJQsqaUBKTNV-1">
          <mxGeometry x="1320" y="470" width="310" height="20" as="geometry" />
        </mxCell>
      </root>
    </mxGraphModel>
  </diagram>
  <diagram id="r4rLklie154vl6MRkz3s" name="Page-2">
    <mxGraphModel dx="830" dy="574" grid="1" gridSize="10" guides="1" tooltips="1" connect="1" arrows="1" fold="1" page="1" pageScale="1" pageWidth="827" pageHeight="1169" math="0" shadow="0">
      <root>
        <mxCell id="RBEfBetX7xLBh7LAXnj8-0" />
        <mxCell id="RBEfBetX7xLBh7LAXnj8-1" parent="RBEfBetX7xLBh7LAXnj8-0" />
      </root>
    </mxGraphModel>
  </diagram>
</mxfile>
